<svg xmlns="http://www.w3.org/2000/svg" viewBox="0 0 336 280"><defs><linearGradient id="bg" x1="0" x2="1" y1="0" y2="1"><stop stop-color="#09090b"/><stop offset=".68" stop-color="#09090b"/><stop offset="1" stop-color="#7d2ae8"/></linearGradient><linearGradient id="scene" x1="0" x2="1" y1="0" y2="1"><stop stop-color="#00c4cc"/><stop offset=".55" stop-color="#f8fafc"/><stop offset="1" stop-color="#7d2ae8"/></linearGradient><filter id="grain"><feTurbulence type="fractalNoise" baseFrequency=".7" numOctaves="2" seed="6"/><feColorMatrix type="saturate" values=".35"/><feComponentTransfer><feFuncA type="table" tableValues="0 .16"/></feComponentTransfer></filter></defs><rect width="336" height="280" fill="url(#bg)"/><rect width="336" height="280" filter="url(#grain)" opacity=".48"/><text x="168" y="35" text-anchor="middle" fill="#ffffff" font-family="Arial,sans-serif" font-size="17" font-weight="900">Canva Pro</text><text x="168" y="72" text-anchor="middle" fill="#ffffff" font-family="Arial,sans-serif" font-size="25" font-weight="900">Disena piezas</text><text x="168" y="106" text-anchor="middle" fill="#ffffff" font-family="Arial,sans-serif" font-size="25" font-weight="900">para tu marca</text><rect x="108" y="145" width="120" height="36" rx="18" fill="#0b7cff"/><text x="168" y="168" text-anchor="middle" fill="#fff" font-family="Arial,sans-serif" font-size="14" font-weight="800">Probar</text><rect x="0" y="206" width="336" height="74" fill="url(#scene)"/><path d="M0 256c58-38 82-26 130-58 44-30 87-19 126 6 30 19 55 26 80 20v56H0z" fill="rgba(255,255,255,.48)"/><rect x="24" y="221" width="105" height="48" rx="10" fill="rgba(255,255,255,.92)" stroke="rgba(15,23,42,.12)"/><rect x="42" y="235" width="45" height="8" rx="4" fill="#7d2ae8"/><rect x="42" y="251" width="66" height="7" rx="4" fill="#94a3b8"/><circle cx="276" cy="237" r="32" fill="rgba(255,255,255,.54)"/><rect x="247" y="249" width="47" height="21" rx="6" fill="#09090b"/></svg>