<svg xmlns="http://www.w3.org/2000/svg" viewBox="0 0 160 600"><defs><linearGradient id="hero" x1="0" x2="0" y1="0" y2="1"><stop stop-color="#111827"/><stop offset=".62" stop-color="#111827"/><stop offset="1" stop-color="#e5e7eb"/></linearGradient><linearGradient id="photo" x1="0" x2="1" y1="0" y2="1"><stop stop-color="#f8fafc"/><stop offset=".48" stop-color="#f8fafc"/><stop offset="1" stop-color="#e5e7eb"/></linearGradient><filter id="grain"><feTurbulence type="fractalNoise" baseFrequency=".92" numOctaves="2" seed="8"/><feColorMatrix type="saturate" values=".28"/><feComponentTransfer><feFuncA type="table" tableValues="0 .15"/></feComponentTransfer></filter></defs><rect width="160" height="600" fill="url(#hero)"/><rect width="160" height="600" filter="url(#grain)" opacity=".55"/><text x="80" y="42" text-anchor="middle" fill="#ffffff" font-family="Arial,sans-serif" font-size="17" font-weight="900">Notion</text><text x="80" y="92" text-anchor="middle" fill="#ffffff" font-family="Arial,sans-serif" font-size="18" font-weight="900">Ordena</text><text x="80" y="120" text-anchor="middle" fill="#ffffff" font-family="Arial,sans-serif" font-size="18" font-weight="900">tu trabajo</text><text x="80" y="148" text-anchor="middle" fill="#ffffff" font-family="Arial,sans-serif" font-size="18" font-weight="900">digital</text><rect x="24" y="190" width="112" height="38" rx="19" fill="#0b7cff"/><text x="80" y="214" text-anchor="middle" fill="#fff" font-family="Arial,sans-serif" font-size="13" font-weight="800">Abrir</text><rect x="0" y="310" width="160" height="290" fill="url(#photo)"/><path d="M0 430c35-56 66-28 93-86 16-34 48-54 67-58v314H0z" fill="rgba(255,255,255,.35)"/><circle cx="122" cy="390" r="52" fill="rgba(255,255,255,.42)"/><rect x="22" y="438" width="116" height="122" rx="15" fill="rgba(255,255,255,.92)" stroke="rgba(15,23,42,.12)"/><rect x="36" y="456" width="72" height="13" rx="7" fill="#e5e7eb"/><rect x="36" y="486" width="88" height="10" rx="5" fill="#94a3b8"/><rect x="36" y="510" width="66" height="10" rx="5" fill="#cbd5e1"/><rect x="106" y="526" width="22" height="22" rx="5" fill="#111827"/><circle cx="52" cy="543" r="19" fill="#f8fafc"/></svg>