<svg xmlns="http://www.w3.org/2000/svg" viewBox="0 0 294 397" role="img" aria-labelledby="title desc">
  <title id="title">Ilustracion de comparendos</title>
  <desc id="desc">Persona caminando con portafolio sobre escalones, dibujada con lineas amarillas sobre fondo morado.</desc>
  <defs>
    <linearGradient id="panel" x1="0" x2="1" y1="0" y2="1">
      <stop offset="0" stop-color="#210847"/>
      <stop offset="0.62" stop-color="#2b0d58"/>
      <stop offset="1" stop-color="#5a2371"/>
    </linearGradient>
    <radialGradient id="glow" cx="73%" cy="22%" r="28%">
      <stop offset="0" stop-color="#ffd400" stop-opacity="0.22"/>
      <stop offset="0.42" stop-color="#ffd400" stop-opacity="0.08"/>
      <stop offset="1" stop-color="#ffd400" stop-opacity="0"/>
    </radialGradient>
    <clipPath id="rounded">
      <rect x="7" y="52" width="280" height="307" rx="28"/>
    </clipPath>
  </defs>

  <rect x="7" y="52" width="280" height="307" rx="28" fill="url(#panel)"/>
  <rect x="7" y="52" width="280" height="307" rx="28" fill="url(#glow)"/>
  <g clip-path="url(#rounded)">
    <path d="M139 359c14-66 35-111 82-133 22-10 43-14 66-14v147z" fill="#6d2c82" opacity="0.52"/>
    <path d="M29 93h220c13 0 23 10 23 23v198c0 13-10 23-23 23H52c-13 0-23-10-23-23V116c0-13 10-23 23-23z" fill="none" stroke="#74408f" stroke-width="1.1"/>
  </g>

  <g fill="none" stroke-linecap="round" stroke-linejoin="round">
    <path d="M249 141h40" stroke="#b58fca" stroke-width="1.7"/>
    <path d="M202 190h82v57" stroke="#b58fca" stroke-width="1.7"/>
    <path d="M165 249h90v61" stroke="#b58fca" stroke-width="1.7"/>
    <path d="M92 354h29v-18h32v-20h34v-18h44" stroke="#b58fca" stroke-width="1.7"/>

    <path d="M149 157c10 0 19-8 19-19s-9-18-19-18-18 8-18 18 8 19 18 19z" stroke="#ffd400" stroke-width="2"/>
    <path d="M145 162c9-1 16 3 18 13l10 58" stroke="#ffd400" stroke-width="2.2"/>
    <path d="M174 243l10-3c5-2 9 0 12 5l27 50c4 8-7 15-12 7l-30-55" stroke="#ffd400" stroke-width="2.2"/>
    <path d="M145 170l-9 73 4 79c0 4 3 6 7 6h2c4 0 7-3 7-7l-1-70 18-8" stroke="#ffd400" stroke-width="2.2"/>
    <path d="M137 218l-39-5-5 39 48 6 5-32c1-4-2-7-6-8z" stroke="#ffd400" stroke-width="2"/>
    <path d="M98 213l-2-13" stroke="#ffd400" stroke-width="2"/>
    <path d="M97 200h40c5 0 9 4 9 9v15" stroke="#ffd400" stroke-width="2"/>
    <path d="M142 248c5 6 17 7 25 0" stroke="#ffd400" stroke-width="2"/>
  </g>
</svg>
